<?xml version="1.0" standalone="no"?>
<!DOCTYPE svg PUBLIC "-//W3C//DTD SVG 20010904//EN"
 "http://www.w3.org/TR/2001/REC-SVG-20010904/DTD/svg10.dtd">
<svg version="1.0" xmlns="http://www.w3.org/2000/svg"
 width="256.000000pt" height="256.000000pt" viewBox="0 0 256.000000 256.000000"
 preserveAspectRatio="xMidYMid meet">
<metadata>
Created by potrace 1.11, written by Peter Selinger 2001-2013
</metadata>
<g transform="translate(0.000000,256.000000) scale(0.100000,-0.100000)"
fill="#000000" stroke="none">
<path d="M86 2511 c-16 -11 -35 -30 -42 -43 -11 -18 -13 -259 -14 -1186 0
-1176 0 -1184 34 -1218 34 -34 43 -34 1218 -34 1133 0 1164 1 1192 19 16 11
35 30 42 43 11 18 13 259 14 1186 0 1176 0 1184 -34 1218 -34 34 -43 34 -1218
34 -1133 0 -1164 -1 -1192 -19z"/>
</g>
</svg>
