<svg xmlns="http://www.w3.org/2000/svg" width="32" height="32" viewBox="0 0 32 32"><title>vk</title><path fill="#6383a8" d="M15.656 25.052h1.914s.576-.064.872-.38c.28-.294.28-.84.28-.84s-.04-2.568 1.16-2.946c1.18-.374 2.68 2.48 4.28 3.576 1.22.84 2.14.66 2.14.66l4.28-.06s2.24-.14 1.18-1.9c-.08-.14-.6-1.3-3.16-3.68-2.68-2.48-2.32-2.08.9-6.38 1.96-2.62 2.76-4.22 2.5-4.9-.22-.64-1.68-.48-1.68-.48l-4.8.04s-.36-.04-.62.12-.42.52-.42.52-.76 2.04-1.78 3.76C20.54 15.8 19.68 16 19.34 15.76c-.806-.52-.6-2.106-.6-3.24 0-3.52.54-5-1.04-5.38-.52-.12-.908-.2-2.246-.22-1.72-.02-3.17.012-3.992.414-.54.27-.96.868-.72.9.32.04 1.04.196 1.42.716.5.674.48 2.18.48 2.18s.28 4.154-.66 4.67c-.66.348-1.54-.374-3.46-3.674-.98-1.68-1.72-3.56-1.72-3.56s-.14-.34-.4-.54c-.3-.22-.74-.3-.74-.3l-4.58.04s-.68.02-.92.32c-.22.26-.02.82-.02.82s3.58 8.38 7.64 12.6c3.72 3.87 7.94 3.62 7.94 3.62z"/></svg>