<?xml version="1.0" encoding="utf-8"?>
<!-- Generator: Adobe Illustrator 21.0.0, SVG Export Plug-In . SVG Version: 6.00 Build 0)  -->
<svg version="1.1" id="Layer_1" width="260" height="260" xmlns="http://www.w3.org/2000/svg" xmlns:xlink="http://www.w3.org/1999/xlink" viewBox="0 0 260 260" xml:space="preserve">
<style type="text/css">
	.st0{fill:none;stroke:#231F20;stroke-width:0.75;stroke-linecap:round;stroke-linejoin:round;stroke-miterlimit:10;}
	.st1{display:none;}
	.st2{display:inline;}

		.st3{display:inline;fill:none;stroke:#231F20;stroke-width:0.75;stroke-linecap:round;stroke-linejoin:round;stroke-miterlimit:10;}
	.st4{fill:#231F20;stroke:#231F20;stroke-width:0.25;stroke-miterlimit:10;}
</style>
<g>
	<g id="i-like-food" stroke-opacity="0.65" fill-opacity="0.65">
		<g>
			<circle class="st0" cx="132.2" cy="44.1" r="16.1"/>
			<circle class="st0" cx="132.2" cy="44.1" r="15"/>
			<circle class="st0" cx="132.2" cy="44.1" r="2"/>
			<line class="st0" x1="132.2" y1="42.1" x2="132.2" y2="29.1"/>
			<circle class="st0" cx="132.2" cy="26.5" r="1.5"/>
			<line class="st0" x1="131.2" y1="42.4" x2="124.6" y2="31.1"/>
			<ellipse transform="matrix(0.8661 -0.4999 0.4999 0.8661 2.079 65.5503)" class="st0" cx="123.4" cy="28.9" rx="1.5" ry="1.5"/>
			<line class="st0" x1="130.4" y1="43.1" x2="119.1" y2="36.6"/>
			<ellipse transform="matrix(0.5 -0.866 0.866 0.5 27.8776 118.9413)" class="st0" cx="116.9" cy="35.3" rx="1.5" ry="1.5"/>
			<line class="st0" x1="130.2" y1="44.1" x2="117.1" y2="44.1"/>
			<circle class="st0" cx="114.6" cy="44.1" r="1.5"/>
			<line class="st0" x1="130.4" y1="45.1" x2="119.1" y2="51.6"/>
			<ellipse transform="matrix(0.866 -0.5 0.5 0.866 -10.7847 65.5589)" class="st0" cx="116.9" cy="52.9" rx="1.5" ry="1.5"/>
			<line class="st0" x1="131.2" y1="45.8" x2="124.6" y2="57.1"/>

				<ellipse transform="matrix(0.4998 -0.8661 0.8661 0.4998 10.3172 136.5402)" class="st0" cx="123.4" cy="59.3" rx="1.5" ry="1.5"/>
			<line class="st0" x1="132.2" y1="46.1" x2="132.2" y2="59.1"/>
			<circle class="st0" cx="132.2" cy="61.7" r="1.5"/>
			<line class="st0" x1="133.2" y1="45.8" x2="139.7" y2="57.1"/>
			<ellipse transform="matrix(0.866 -0.5001 0.5001 0.866 -10.7821 78.4452)" class="st0" cx="141" cy="59.3" rx="1.5" ry="1.5"/>
			<line class="st0" x1="133.9" y1="45.1" x2="145.2" y2="51.6"/>

				<ellipse transform="matrix(0.4998 -0.8661 0.8661 0.4998 27.8996 154.1189)" class="st0" cx="147.4" cy="52.9" rx="1.5" ry="1.5"/>
			<line class="st0" x1="134.2" y1="44.1" x2="147.2" y2="44.1"/>
			<circle class="st0" cx="149.7" cy="44.1" r="1.5"/>
			<line class="st0" x1="133.9" y1="43.1" x2="145.2" y2="36.6"/>
			<ellipse transform="matrix(0.8659 -0.5002 0.5002 0.8659 2.0914 78.4574)" class="st0" cx="147.4" cy="35.3" rx="1.5" ry="1.5"/>
			<line class="st0" x1="133.2" y1="42.4" x2="139.7" y2="31.1"/>
			<ellipse transform="matrix(0.4997 -0.8662 0.8662 0.4997 45.4931 136.5516)" class="st0" cx="141" cy="28.9" rx="1.5" ry="1.5"/>
			<line class="st0" x1="132.2" y1="44.1" x2="139.9" y2="66.5"/>
			<line class="st0" x1="132.2" y1="44.1" x2="124.5" y2="66.5"/>
		</g>
		<g>
			<path class="st0" d="M54.2,47.6H63c1.1,0,1.9-0.9,1.9-1.9V30.5c0-3.2-2.6-5.8-5.8-5.8H24.8c-3.2,0-5.8,2.6-5.8,5.8v15.2
				c0,1.1,0.9,1.9,1.9,1.9h3.5"/>
			<line class="st0" x1="31.1" y1="47.6" x2="47.5" y2="47.6"/>
			<circle class="st0" cx="27.8" cy="47.6" r="3.3"/>
			<circle class="st0" cx="27.8" cy="47.6" r="1.6"/>
			<circle class="st0" cx="50.9" cy="47.6" r="3.3"/>
			<circle class="st0" cx="50.9" cy="47.6" r="1.6"/>
			<rect x="19" y="36.2" class="st0" width="9.5" height="5.3"/>
			<rect x="31.8" y="36.2" class="st0" width="9.5" height="5.3"/>
			<rect x="44.7" y="36.2" class="st0" width="9.5" height="5.3"/>
			<rect x="22.5" y="27.8" class="st0" width="6" height="5.3"/>
			<rect x="31.8" y="27.8" class="st0" width="9.5" height="5.3"/>
			<rect x="44.7" y="27.8" class="st0" width="9.5" height="5.3"/>
			<rect x="56.6" y="36.2" class="st0" width="5" height="11.4"/>
			<path class="st0" d="M19,42.7c0.9,0,1.6,0.7,1.6,1.6s-0.7,1.6-1.6,1.6"/>
			<polyline class="st0" points="65.2,45.4 66.8,45.4 66.8,47.6 62.7,47.6 			"/>
			<polyline class="st0" points="19,45.4 17.4,45.4 17.4,47.6 21.5,47.6 			"/>
		</g>
		<g>
			<path class="st0" d="M217.6,28.5c2.7-2.7,7.8-1.4,10.5,2.1c2.7,3.5,2.9,8.2,0.3,11.5"/>
			<path class="st0" d="M217.6,28.5c3.6-5.1,13-7.2,17.9-0.8c4.9,6.4,2.1,19.1-4.2,19.1c-2,0-3.5-3-3-4.7c-3.4,4.3-10,2.4-10.7-1.5"
				/>
			<circle class="st0" cx="217.6" cy="50.2" r="1.3"/>
			<circle class="st0" cx="225.8" cy="50.2" r="1.3"/>
			<rect x="204.3" y="46.7" class="st0" width="26.6" height="5.9"/>
			<path class="st0" d="M217.6,28.5c-2.7-2.7-7.8-1.4-10.5,2.1c-2.7,3.5-2.9,8.2-0.3,11.5"/>
			<path class="st0" d="M217.6,40.6c-0.7,3.9-7.3,5.8-10.7,1.5c0.5,1.6-1,4.7-3,4.7c-6.3,0-9.1-12.7-4.2-19.1
				c4.9-6.4,14.3-4.3,17.9,0.8V40.6z"/>
			<circle class="st0" cx="217.6" cy="22.4" r="3"/>
			<circle class="st0" cx="209.4" cy="50.2" r="1.3"/>
			<polygon class="st0" points="218.7,14.2 217.6,16.9 216.5,14.2 217.6,12 			"/>
			<polyline class="st0" points="218.7,19.7 217.6,16.9 216.5,19.7 			"/>
			<polygon class="st0" points="220.3,18 217.6,16.9 220.3,15.8 222.5,16.9 			"/>
			<polygon class="st0" points="214.9,18 217.6,16.9 214.9,15.8 212.7,16.9 			"/>
			<circle class="st0" cx="227.8" cy="21.3" r="1.1"/>
			<circle class="st0" cx="234.4" cy="23.5" r="1.1"/>
			<circle class="st0" cx="207.4" cy="21.3" r="1.1"/>
			<circle class="st0" cx="200.9" cy="23.5" r="1.1"/>
		</g>
		<g class="st1">
			<g class="st2">
				<path class="st0" d="M286,27.8c0-13.9-11.3-25.2-25.2-25.2c-13.9,0-25.2,11.3-25.2,25.2c0-2,2.8-3.6,6.3-3.6
					c3.5,0,6.3,1.6,6.3,3.6c0-2,2.8-3.6,6.3-3.6c3.5,0,6.3,1.6,6.3,3.6c0-2,2.8-3.6,6.3-3.6c3.5,0,6.3,1.6,6.3,3.6
					c0-2,2.8-3.6,6.3-3.6C283.2,24.2,286,25.8,286,27.8z"/>
				<path class="st0" d="M273.4,27.8c0-16.1-8.5-25.1-12.6-25.1"/>
				<path class="st0" d="M248.2,27.8c0-16.1,8.5-25.1,12.6-25.1"/>
				<path class="st0" d="M271.7,43.1c0,3-2.4,5.4-5.4,5.4c-3,0-5.4-2.4-5.4-5.4l-0.1-45.8"/>
			</g>
			<path class="st3" d="M263-10.2c0,1.2-1,2.2-2.2,2.2c-1.2,0-2.2-1-2.2-2.2c0-1.2,2.2-3.5,2.2-3.5S263-11.4,263-10.2z"/>
			<path class="st3" d="M250.5-7.6c0,1.2-1,2.2-2.2,2.2c-1.2,0-2.2-1-2.2-2.2c0-1.2,2.2-3.5,2.2-3.5S250.5-8.9,250.5-7.6z"/>
			<path class="st3" d="M275.7-7.6c0,1.2-1,2.2-2.2,2.2c-1.2,0-2.2-1-2.2-2.2c0-1.2,2.2-3.5,2.2-3.5S275.7-8.9,275.7-7.6z"/>
		</g>
		<g>
			<rect x="26.8" y="105.8" class="st0" width="20.4" height="31.8"/>
			<rect x="30.1" y="111.2" class="st0" width="13.9" height="20.9"/>
			<line class="st0" x1="30.1" y1="115.4" x2="44" y2="115.4"/>
			<line class="st0" x1="30.1" y1="119.6" x2="44" y2="119.6"/>
			<line class="st0" x1="30.1" y1="123.8" x2="44" y2="123.8"/>
			<line class="st0" x1="30.1" y1="127.9" x2="44" y2="127.9"/>
			<rect x="28.8" y="103.3" class="st0" width="16.6" height="2.5"/>
			<polygon class="st0" points="46.3,100.4 27.8,100.4 26.8,103.3 47.3,103.3 			"/>
			<rect x="26.8" y="137.6" class="st0" width="20.4" height="2.4"/>
			<rect x="25.9" y="140" class="st0" width="22.4" height="2.4"/>
			<path class="st0" d="M55.8,111.8c0,4.5-1.4,4.5-2.9,4.5c-1.5,0-2,1.5-2,3.8c0,2.3-0.1,3.2,2.8,3.2c3.8,0,4.8-8.2,4.8-11.6
				c0-3.4-1-11.6-4.8-11.6c-2.9,0-2.8,0.9-2.8,3.2c0,2.3,0.6,3.8,2,3.8C54.4,107.3,55.8,107.3,55.8,111.8z"/>
			<path class="st0" d="M47.3,129h1.6c0.9,0,1.6,0.7,1.6,1.6v5.9c0,0.9,0.7,1.6,1.6,1.6c0.9,0,1.6-0.7,1.6-1.6v-13.1"/>
		</g>
		<g>
			<g>
				<g>
					<rect x="207.7" y="132.6" class="st0" width="15.1" height="10.6"/>
					<rect x="208.6" y="134.4" class="st0" width="13.2" height="1.1"/>
					<rect x="208.6" y="137" class="st0" width="13.2" height="1.1"/>
					<rect x="206.7" y="116.2" class="st0" width="17" height="16.3"/>
					<circle class="st0" cx="215.2" cy="124.4" r="6.3"/>
					<polygon class="st0" points="215.7,123.5 215.7,118.9 214.8,118.9 214.8,124.4 218.6,124.4 218.6,123.5 					"/>
					<rect x="207.7" y="113.2" class="st0" width="15.1" height="3"/>
					<rect x="208" y="111.3" class="st0" width="14.4" height="1.9"/>
					<rect x="209.9" y="103.8" class="st0" width="10.6" height="3.8"/>
					<rect x="211.8" y="101.9" class="st0" width="6.8" height="1.9"/>
					<polygon class="st0" points="217.1,101.9 213.4,101.9 214.8,91.8 215.7,91.8 					"/>
					<rect x="208.6" y="107.6" class="st0" width="13.2" height="3.8"/>
					<rect x="209.5" y="108.6" class="st0" width="1.8" height="1.8"/>
					<rect x="212.7" y="108.6" class="st0" width="1.8" height="1.8"/>
					<rect x="216" y="108.6" class="st0" width="1.8" height="1.8"/>
					<rect x="219.2" y="108.6" class="st0" width="1.8" height="1.8"/>
				</g>
			</g>
		</g>
		<g>
			<g>
				<path class="st0" d="M140,133.1c0.2,0.1,0.5,0.1,0.7,0.1c1.8,0,3.2-1.4,3.2-3.2c0-0.4-0.1-0.8-0.2-1.1c1.4-0.4,2.4-1.6,2.4-3.1
					c0-0.8-0.3-1.6-0.9-2.2c1.1-0.5,1.8-1.6,1.8-2.9c0-1.3-0.8-2.4-1.9-2.9c0.5-0.6,0.9-1.3,0.9-2.2c0-1.8-1.4-3.2-3.2-3.2
					c-0.9,0-1.6,0.3-2.2,0.9c-0.1-1.7-1.5-3.1-3.2-3.1c-0.8,0-1.6,0.3-2.2,0.9c-0.4-1.4-1.6-2.4-3.1-2.4c-1.5,0-2.7,1-3.1,2.4
					c-0.6-0.5-1.3-0.9-2.2-0.9c-1.7,0-3.1,1.4-3.2,3.1c-0.6-0.5-1.3-0.9-2.2-0.9c-1.8,0-3.2,1.4-3.2,3.2c0,0.8,0.3,1.6,0.9,2.2
					c-1.1,0.5-1.9,1.6-1.9,2.9c0,1.3,0.8,2.4,1.8,2.9c-0.5,0.6-0.9,1.3-0.9,2.2c0,1.5,1,2.7,2.4,3.1c-0.1,0.3-0.2,0.7-0.2,1.1
					c0,1.8,1.4,3.2,3.2,3.2c0.3,0,0.6,0,0.9-0.1"/>
				<path class="st0" d="M140.7,129.4c0,4.6-3.7,8.4-8.4,8.4c-4.6,0-8.4-3.7-8.4-8.4c0-7.7,3.7-8.4,8.4-8.4
					C137,121,140.7,121.7,140.7,129.4z"/>
				<path class="st0" d="M128,136.5c0,0,1.7,7.9-6.9,7.9c0,4.2,4.4,10.3,11.3,10.3s11.3-6.2,11.3-10.3c-8.6,0-6.9-7.9-6.9-7.9"/>
			</g>
			<path class="st0" d="M142.5,110.8c2.5,0.6,4.2-3.8,1.5-4.8c-2.1-0.8-5.2,3.1-3,4.1c2.2,1,3.6-4.9,0.3-5.8
				c-3.3-0.9-5.7,3.3-3.5,4.1c2.2,0.9,3.4-4.9-0.4-5.7c-3.5-0.7-4.8,4.3-2.8,4.7c1.8,0.3,1.7-5.5-1.1-5.5c-2.4,0-2.6,3.7-1.2,3.7h0
				c1.4,0,1.2-3.7-1.2-3.7c-2.8,0-2.9,5.8-1.1,5.5c2-0.4,0.7-5.3-2.7-4.7c-3.8,0.7-2.6,6.5-0.4,5.7c2.2-0.9-0.2-5-3.5-4.1
				c-3.3,0.9-1.9,6.8,0.3,5.8c2.2-1-0.9-4.9-3-4.1c-2.7,1.1-1,5.4,1.5,4.8"/>
			<circle class="st0" cx="140.2" cy="138.7" r="1"/>
			<line class="st0" x1="140.2" y1="137.6" x2="140.2" y2="133.2"/>
			<circle class="st0" cx="124.5" cy="138.7" r="1"/>
			<line class="st0" x1="124.5" y1="137.6" x2="124.5" y2="133.2"/>
		</g>
		<g>
			<path class="st0" d="M219.9,214.4c0,0,0,4.4,0,9.8c0,5.5-5.1,4.4-5.1,4.4v-14.2"/>
			<path class="st0" d="M204.5,197.9c1.5-5.7,6.7-9.9,12.9-9.9c6.2,0,11.4,4.2,12.9,9.9"/>
			<path class="st0" d="M230.2,205.1c-1.6,5.6-6.7,9.6-12.8,9.6c-6.1,0-11.2-4.1-12.8-9.6"/>
			<path class="st0" d="M208.7,197.9c1.4-3.5,4.7-5.9,8.7-5.9c3.9,0,7.3,2.4,8.7,5.9"/>
			<path class="st0" d="M226,205c-1.4,3.3-4.7,5.7-8.6,5.7c-3.8,0-7.1-2.3-8.6-5.6"/>
			<rect x="200.7" y="197.9" class="st0" width="33.3" height="7.1"/>
			<g>
				<path class="st4" d="M201.8,200.2h0.5v1.6c0,0.4,0,0.8,0.6,0.8c0.6,0,0.6-0.4,0.6-0.8v-1.6h0.5v1.7c0,0.7-0.4,1-1.1,1
					c-0.7,0-1.1-0.3-1.1-1V200.2z"/>
				<path class="st4" d="M204.7,200.2h0.5l1.2,2h0v-2h0.4v2.7h-0.5l-1.2-2h0v2h-0.4V200.2z"/>
				<path class="st4" d="M207.7,200.2h1.1c0.8,0,1.2,0.6,1.2,1.3c0,0.7-0.4,1.3-1.2,1.3h-1.1V200.2z M208.1,202.5h0.5
					c0.7,0,0.9-0.4,0.9-1s-0.2-1-0.9-1h-0.5V202.5z"/>
				<path class="st4" d="M210.6,200.2h1.9v0.4h-1.5v0.7h1.3v0.4h-1.3v0.8h1.5v0.4h-1.9V200.2z"/>
				<path class="st4" d="M213.2,200.2h1.3c0.6,0,0.9,0.3,0.9,0.7c0,0.5-0.4,0.6-0.4,0.7v0c0.2,0,0.4,0.1,0.4,0.6
					c0,0.3,0,0.6,0.1,0.7h-0.5c-0.1-0.1-0.1-0.3-0.1-0.4c0-0.5-0.1-0.7-0.5-0.7h-0.7v1.1h-0.5V200.2z M213.6,201.4h0.8
					c0.3,0,0.5-0.1,0.5-0.4c0-0.3-0.2-0.4-0.5-0.4h-0.8V201.4z"/>
				<path class="st4" d="M218.3,202.9h-0.3l-0.1-0.3c-0.3,0.3-0.5,0.4-0.8,0.4c-0.8,0-1.3-0.6-1.3-1.4c0-0.8,0.5-1.4,1.3-1.4
					c0.6,0,1.1,0.3,1.1,0.9h-0.5c0-0.4-0.4-0.5-0.7-0.5c-0.6,0-0.8,0.5-0.8,1c0,0.5,0.2,1,0.8,1c0.5,0,0.7-0.3,0.7-0.7h-0.7v-0.4
					h1.1V202.9z"/>
				<path class="st4" d="M219.1,200.2h1.3c0.6,0,0.9,0.3,0.9,0.7c0,0.5-0.4,0.6-0.4,0.7v0c0.2,0,0.4,0.1,0.4,0.6
					c0,0.3,0,0.6,0.1,0.7h-0.5c-0.1-0.1-0.1-0.3-0.1-0.4c0-0.5-0.1-0.7-0.5-0.7h-0.7v1.1h-0.5V200.2z M219.5,201.4h0.8
					c0.3,0,0.5-0.1,0.5-0.4c0-0.3-0.2-0.4-0.5-0.4h-0.8V201.4z"/>
				<path class="st4" d="M224.3,201.5c0,0.8-0.5,1.4-1.3,1.4c-0.8,0-1.3-0.6-1.3-1.4c0-0.8,0.5-1.4,1.3-1.4
					C223.9,200.2,224.3,200.8,224.3,201.5z M222.3,201.5c0,0.5,0.2,1,0.8,1c0.6,0,0.8-0.5,0.8-1c0-0.5-0.2-1-0.8-1
					C222.5,200.5,222.3,201,222.3,201.5z"/>
				<path class="st4" d="M225,200.2h0.5v1.6c0,0.4,0,0.8,0.6,0.8c0.6,0,0.6-0.4,0.6-0.8v-1.6h0.5v1.7c0,0.7-0.4,1-1.1,1
					c-0.7,0-1.1-0.3-1.1-1V200.2z"/>
				<path class="st4" d="M227.9,200.2h0.5l1.2,2h0v-2h0.4v2.7h-0.5l-1.2-2h0v2h-0.4V200.2z"/>
				<path class="st4" d="M230.8,200.2h1.1c0.8,0,1.2,0.6,1.2,1.3c0,0.7-0.4,1.3-1.2,1.3h-1.1V200.2z M231.3,202.5h0.5
					c0.7,0,0.9-0.4,0.9-1s-0.2-1-0.9-1h-0.5V202.5z"/>
			</g>
		</g>
		<g>
			<path class="st0" d="M118.9,225.8c0,6.3,5.1,11.3,11.3,11.3h5.8c6.3,0,11.3-5.1,11.3-11.3v-8.4h-28.5V225.8z"/>
			<path class="st0" d="M147.4,217.4h2.4c2.7,0,5,2.2,5,5c0,2.7-2.2,5-5,5h-2.4"/>
			<path class="st0" d="M147.4,219.4h2.4c1.6,0,3,1.3,3,3c0,1.6-1.3,3-3,3h-2.4"/>
			<path class="st0" d="M114.6,240.2c-0.9,0-1.6-0.7-1.6-1.6c0-0.9,0.7-1.6,1.6-1.6h37c0.9,0,1.6,0.7,1.6,1.6c0,0.9-0.7,1.6-1.6,1.6
				H114.6z"/>
			<g>
				<path class="st0" d="M127.1,204.9c2.2,2.2,1.8,6.1,1.8,6.1s-3.9,0.4-6.1-1.8c-2.2-2.2-1.8-6.1-1.8-6.1S124.9,202.7,127.1,204.9z
					"/>
				<line class="st0" x1="121" y1="203.1" x2="128.9" y2="211"/>
			</g>
			<path class="st0" d="M136.6,213.1c0-3.8-2.7-3.8-2.7-7.6c0-3.8,2.7-3.8,2.7-7.6c0-3.8-2.7-3.8-2.7-7.6"/>
			<path class="st0" d="M143.5,213.1c0-3.8-2.7-3.8-2.7-7.6c0-3.8,2.7-3.8,2.7-7.6c0-3.8-2.7-3.8-2.7-7.6"/>
		</g>
		<g>
			<path class="st0" d="M26.9,214.1c0,0-0.9-4.1-0.9-9.6c0-5.5,4.1-12.1,11.9-12.1c7.8,0,11.9,6.6,11.9,12.1c0,5.5-0.9,9.6-0.9,9.6
				s-2.5,2.9-11,2.9C29.4,217,26.9,214.1,26.9,214.1z"/>
			<path class="st0" d="M36.5,192.5c0-0.8,0.6-1.4,1.4-1.4c0.8,0,1.4,0.6,1.4,1.4"/>
			<polygon class="st0" points="37.9,203.9 39.6,206.3 42.6,206.6 41.3,209.3 42.6,212 39.6,212.2 37.9,214.7 36.2,212.2 33.2,212
				34.5,209.3 33.2,206.6 36.2,206.3 			"/>
			<path class="st0" d="M26.9,214.1c-2.4,1.8-2.3,4.2,1,5.9c3.3,1.6,7.4,1.8,10,1.8c2.6,0,6.7-0.1,10-1.8c3.3-1.6,3.4-4.1,1-5.9"/>
			<g>
				<path class="st0" d="M57.1,220.6v-34.5c0-1.2,1-2.1,2.1-2.1c1.2,0,2.1,1,2.1,2.1v34.5"/>
				<path class="st0" d="M61.4,221.8v8.8c0,1.2-1,2.1-2.1,2.1c-1.2,0-2.1-1-2.1-2.1v-8.8"/>
				<path class="st0" d="M56,221.8c-0.3,0-0.6-0.3-0.6-0.6c0-0.3,0.3-0.6,0.6-0.6h6.4c0.3,0,0.6,0.3,0.6,0.6c0,0.3-0.3,0.6-0.6,0.6
					H56z"/>
				<line class="st0" x1="57.1" y1="223.1" x2="61.4" y2="223.1"/>
				<line class="st0" x1="57.1" y1="224.5" x2="61.4" y2="224.5"/>
				<line class="st0" x1="57.1" y1="226" x2="61.4" y2="226"/>
				<line class="st0" x1="57.1" y1="227.4" x2="61.4" y2="227.4"/>
				<line class="st0" x1="57.1" y1="228.8" x2="61.4" y2="228.8"/>
				<line class="st0" x1="57.1" y1="230.2" x2="61.4" y2="230.2"/>
			</g>
		</g>
	</g>
</g>
</svg>
